<svg xmlns="http://www.w3.org/2000/svg" width="640" height="380" viewBox="0 0 640 380">
<style>text{font-family:sans-serif;font-size:11px;}</style>
<rect x="60.0" y="40.0" width="420.0" height="290.0" fill="#f8f8f8" opacity="1.00"/>
<text x="320.0" y="22.0" text-anchor="middle" fill="#222" font-size="12">Speedup relative to treewidth (ratio &gt; 1 = faster than treewidth)</text>
<text x="55.0" y="334.0" text-anchor="end" fill="#666" font-size="9">0.50×</text>
<line x1="60.0" y1="330.0" x2="480.0" y2="330.0" stroke="#eee" stroke-width="1.0"/>
<text x="55.0" y="285.7" text-anchor="end" fill="#666" font-size="9">0.75×</text>
<line x1="60.0" y1="281.7" x2="480.0" y2="281.7" stroke="#eee" stroke-width="1.0"/>
<text x="55.0" y="237.3" text-anchor="end" fill="#666" font-size="9">1.00×</text>
<line x1="60.0" y1="233.3" x2="480.0" y2="233.3" stroke="#eee" stroke-width="1.0"/>
<text x="55.0" y="189.0" text-anchor="end" fill="#666" font-size="9">1.25×</text>
<line x1="60.0" y1="185.0" x2="480.0" y2="185.0" stroke="#eee" stroke-width="1.0"/>
<text x="55.0" y="140.7" text-anchor="end" fill="#666" font-size="9">1.50×</text>
<line x1="60.0" y1="136.7" x2="480.0" y2="136.7" stroke="#eee" stroke-width="1.0"/>
<text x="55.0" y="44.0" text-anchor="end" fill="#666" font-size="9">2.00×</text>
<line x1="60.0" y1="40.0" x2="480.0" y2="40.0" stroke="#eee" stroke-width="1.0"/>
<line x1="60.0" y1="233.3" x2="480.0" y2="233.3" stroke="#999" stroke-width="1.0" stroke-dasharray="4,2"/>
<text x="112.5" y="345.0" text-anchor="middle" fill="#444" font-size="10">0-32</text>
<rect x="77.5" y="233.3" width="33.0" height="32.2" fill="#ff7f0e" opacity="0.40"/>
<rect x="112.5" y="233.3" width="33.0" height="77.4" fill="#8c564b" opacity="0.40"/>
<text x="217.5" y="345.0" text-anchor="middle" fill="#444" font-size="10">33-64</text>
<rect x="182.5" y="233.3" width="33.0" height="15.6" fill="#ff7f0e" opacity="0.40"/>
<rect x="217.5" y="233.3" width="33.0" height="96.7" fill="#8c564b" opacity="0.40"/>
<text x="322.5" y="345.0" text-anchor="middle" fill="#444" font-size="10">65-128</text>
<rect x="287.5" y="233.3" width="33.0" height="42.7" fill="#ff7f0e" opacity="0.40"/>
<text x="427.5" y="345.0" text-anchor="middle" fill="#444" font-size="10">129-256</text>
<rect x="392.5" y="233.3" width="33.0" height="32.1" fill="#ff7f0e" opacity="0.40"/>
<rect x="490.0" y="41.0" width="12.0" height="9.0" fill="#ff7f0e" opacity="1.00"/>
<text x="505.0" y="50.0" text-anchor="start" fill="#333" font-size="10">branch:auto</text>
<rect x="490.0" y="57.0" width="12.0" height="9.0" fill="#8c564b" opacity="1.00"/>
<text x="505.0" y="66.0" text-anchor="start" fill="#333" font-size="10">rankwidth:best</text>
</svg>