<svg xmlns="http://www.w3.org/2000/svg" width="520" height="360" viewBox="0 0 520 360">
<style>text{font-family:sans-serif;font-size:11px;}</style>
<rect x="60.0" y="40.0" width="300.0" height="270.0" fill="#f8f8f8" opacity="1.00"/>
<text x="260.0" y="22.0" text-anchor="middle" fill="#222" font-size="13">WMC time breakdown by tier</text>
<text x="85.0" y="325.0" text-anchor="middle" fill="#444" font-size="10">0-32</text>
<rect x="64.0" y="308.2" width="42.0" height="0.0" fill="#17becf" opacity="0.85"/>
<rect x="64.0" y="308.2" width="42.0" height="1.8" fill="#e377c2" opacity="0.85"/>
<text x="135.0" y="325.0" text-anchor="middle" fill="#444" font-size="10">33-64</text>
<rect x="114.0" y="299.7" width="42.0" height="0.0" fill="#17becf" opacity="0.85"/>
<rect x="114.0" y="299.7" width="42.0" height="10.3" fill="#e377c2" opacity="0.85"/>
<text x="185.0" y="325.0" text-anchor="middle" fill="#444" font-size="10">65-128</text>
<rect x="164.0" y="308.4" width="42.0" height="0.0" fill="#17becf" opacity="0.85"/>
<rect x="164.0" y="308.4" width="42.0" height="1.6" fill="#e377c2" opacity="0.85"/>
<text x="235.0" y="325.0" text-anchor="middle" fill="#444" font-size="10">129-256</text>
<rect x="214.0" y="295.3" width="42.0" height="0.0" fill="#17becf" opacity="0.85"/>
<rect x="214.0" y="295.3" width="42.0" height="14.7" fill="#e377c2" opacity="0.85"/>
<text x="285.0" y="325.0" text-anchor="middle" fill="#444" font-size="10">257-512-sample</text>
<rect x="264.0" y="40.0" width="42.0" height="0.0" fill="#17becf" opacity="0.85"/>
<rect x="264.0" y="40.0" width="42.0" height="270.0" fill="#e377c2" opacity="0.85"/>
<text x="335.0" y="325.0" text-anchor="middle" fill="#444" font-size="10"></text>
<rect x="314.0" y="298.3" width="42.0" height="0.0" fill="#17becf" opacity="0.85"/>
<rect x="314.0" y="298.3" width="42.0" height="11.7" fill="#e377c2" opacity="0.85"/>
<rect x="370.0" y="41.0" width="12.0" height="9.0" fill="#e377c2" opacity="1.00"/>
<text x="385.0" y="50.0" text-anchor="start" fill="#333" font-size="10">Ganak</text>
<rect x="370.0" y="57.0" width="12.0" height="9.0" fill="#17becf" opacity="1.00"/>
<text x="385.0" y="66.0" text-anchor="start" fill="#333" font-size="10">Export</text>
</svg>