<svg xmlns="http://www.w3.org/2000/svg" width="560" height="380" viewBox="0 0 560 380">
<style>text{font-family:sans-serif;font-size:11px;}</style>
<rect x="60.0" y="40.0" width="340.0" height="290.0" fill="#f8f8f8" opacity="1.00"/>
<text x="280.0" y="22.0" text-anchor="middle" fill="#222" font-size="13">Branch dispatch by tier (branch:auto)</text>
<text x="81.2" y="345.0" text-anchor="middle" fill="#444" font-size="10">0-32</text>
<rect x="64.0" y="326.0" width="34.5" height="4.0" fill="#1f77b4" opacity="0.85"/>
<rect x="64.0" y="226.4" width="34.5" height="99.6" fill="#2ca02c" opacity="0.85"/>
<text x="123.8" y="345.0" text-anchor="middle" fill="#444" font-size="10">1-8</text>
<rect x="106.5" y="282.6" width="34.5" height="47.4" fill="#2ca02c" opacity="0.85"/>
<text x="166.2" y="345.0" text-anchor="middle" fill="#444" font-size="10">9-16</text>
<rect x="149.0" y="73.5" width="34.5" height="256.5" fill="#2ca02c" opacity="0.85"/>
<text x="208.8" y="345.0" text-anchor="middle" fill="#444" font-size="10">17-32</text>
<rect x="191.5" y="309.7" width="34.5" height="20.3" fill="#1f77b4" opacity="0.85"/>
<rect x="191.5" y="304.9" width="34.5" height="4.8" fill="#ff7f0e" opacity="0.85"/>
<text x="251.2" y="345.0" text-anchor="middle" fill="#444" font-size="10">33-64</text>
<rect x="234.0" y="293.4" width="34.5" height="36.6" fill="#1f77b4" opacity="0.85"/>
<rect x="234.0" y="288.6" width="34.5" height="4.8" fill="#ff7f0e" opacity="0.85"/>
<rect x="234.0" y="40.0" width="34.5" height="248.6" fill="#2ca02c" opacity="0.85"/>
<text x="293.8" y="345.0" text-anchor="middle" fill="#444" font-size="10">65-128</text>
<rect x="276.5" y="254.3" width="34.5" height="75.7" fill="#1f77b4" opacity="0.85"/>
<rect x="276.5" y="95.0" width="34.5" height="159.3" fill="#2ca02c" opacity="0.85"/>
<text x="336.2" y="345.0" text-anchor="middle" fill="#444" font-size="10">129-256</text>
<rect x="319.0" y="295.7" width="34.5" height="34.3" fill="#1f77b4" opacity="0.85"/>
<rect x="319.0" y="287.8" width="34.5" height="8.0" fill="#2ca02c" opacity="0.85"/>
<text x="378.8" y="345.0" text-anchor="middle" fill="#444" font-size="10">rankwidth</text>
<rect x="361.5" y="319.2" width="34.5" height="10.8" fill="#1f77b4" opacity="0.85"/>
<rect x="361.5" y="312.5" width="34.5" height="6.8" fill="#ff7f0e" opacity="0.85"/>
<rect x="361.5" y="167.5" width="34.5" height="145.0" fill="#2ca02c" opacity="0.85"/>
<rect x="410.0" y="41.0" width="12.0" height="9.0" fill="#1f77b4" opacity="1.00"/>
<text x="425.0" y="50.0" text-anchor="start" fill="#333" font-size="10">tw delegates</text>
<rect x="410.0" y="57.0" width="12.0" height="9.0" fill="#ff7f0e" opacity="1.00"/>
<text x="425.0" y="66.0" text-anchor="start" fill="#333" font-size="10">rw delegates</text>
<rect x="410.0" y="73.0" width="12.0" height="9.0" fill="#2ca02c" opacity="1.00"/>
<text x="425.0" y="82.0" text-anchor="start" fill="#333" font-size="10">fallthroughs</text>
</svg>