<svg xmlns="http://www.w3.org/2000/svg" width="720" height="780" viewBox="0 0 720 780">
<style>text{font-family:sans-serif;font-size:11px;}</style>
<rect x="100.0" y="40.0" width="460.0" height="700.0" fill="#f8f8f8" opacity="1.00"/>
<text x="360.0" y="22.0" text-anchor="middle" fill="#222" font-size="13">Solver time by tier (total, log scale)</text>
<text x="95.0" y="78.9" text-anchor="end" fill="#333" font-size="10">0-32</text>
<line x1="100.0" y1="40.0" x2="560.0" y2="40.0" stroke="#ddd" stroke-width="1.0"/>
<rect x="100.0" y="42.0" width="344.6" height="17.4" fill="#1f77b4" opacity="0.80"/>
<text x="447.6" y="58.4" text-anchor="start" fill="#333" font-size="9">144ms</text>
<rect x="100.0" y="61.4" width="344.9" height="17.4" fill="#ff7f0e" opacity="0.80"/>
<text x="447.9" y="77.9" text-anchor="start" fill="#333" font-size="9">147ms</text>
<rect x="100.0" y="80.9" width="365.9" height="17.4" fill="#8c564b" opacity="0.80"/>
<text x="468.9" y="97.3" text-anchor="start" fill="#333" font-size="9">459ms</text>
<text x="95.0" y="156.7" text-anchor="end" fill="#333" font-size="10">1-8</text>
<line x1="100.0" y1="117.8" x2="560.0" y2="117.8" stroke="#ddd" stroke-width="1.0"/>
<rect x="100.0" y="139.2" width="335.0" height="17.4" fill="#ff7f0e" opacity="0.80"/>
<text x="438.0" y="155.7" text-anchor="start" fill="#333" font-size="9">85ms</text>
<text x="95.0" y="234.4" text-anchor="end" fill="#333" font-size="10">9-16</text>
<line x1="100.0" y1="195.6" x2="560.0" y2="195.6" stroke="#ddd" stroke-width="1.0"/>
<rect x="100.0" y="217.0" width="328.5" height="17.4" fill="#ff7f0e" opacity="0.80"/>
<text x="431.5" y="233.4" text-anchor="start" fill="#333" font-size="9">60ms</text>
<text x="95.0" y="312.2" text-anchor="end" fill="#333" font-size="10">17-32</text>
<line x1="100.0" y1="273.3" x2="560.0" y2="273.3" stroke="#ddd" stroke-width="1.0"/>
<rect x="100.0" y="294.8" width="334.3" height="17.4" fill="#ff7f0e" opacity="0.80"/>
<text x="437.3" y="311.2" text-anchor="start" fill="#333" font-size="9">82ms</text>
<text x="95.0" y="390.0" text-anchor="end" fill="#333" font-size="10">33-64</text>
<line x1="100.0" y1="351.1" x2="560.0" y2="351.1" stroke="#ddd" stroke-width="1.0"/>
<rect x="100.0" y="353.1" width="342.7" height="17.4" fill="#1f77b4" opacity="0.80"/>
<text x="445.7" y="369.6" text-anchor="start" fill="#333" font-size="9">130ms</text>
<rect x="100.0" y="372.6" width="398.9" height="17.4" fill="#ff7f0e" opacity="0.80"/>
<text x="501.9" y="389.0" text-anchor="start" fill="#333" font-size="9">2778ms</text>
<rect x="100.0" y="392.0" width="364.1" height="17.4" fill="#8c564b" opacity="0.80"/>
<text x="467.1" y="408.4" text-anchor="start" fill="#333" font-size="9">416ms</text>
<text x="95.0" y="467.8" text-anchor="end" fill="#333" font-size="10">65-128</text>
<line x1="100.0" y1="428.9" x2="560.0" y2="428.9" stroke="#ddd" stroke-width="1.0"/>
<rect x="100.0" y="430.9" width="368.2" height="17.4" fill="#1f77b4" opacity="0.80"/>
<text x="471.2" y="447.3" text-anchor="start" fill="#333" font-size="9">521ms</text>
<rect x="100.0" y="450.3" width="378.1" height="17.4" fill="#ff7f0e" opacity="0.80"/>
<text x="481.1" y="466.8" text-anchor="start" fill="#333" font-size="9">895ms</text>
<rect x="100.0" y="469.8" width="460.0" height="17.4" fill="#8c564b" opacity="0.80"/>
<text x="563.0" y="486.2" text-anchor="start" fill="#333" font-size="9">77660ms</text>
<text x="95.0" y="545.6" text-anchor="end" fill="#333" font-size="10">129-256</text>
<line x1="100.0" y1="506.7" x2="560.0" y2="506.7" stroke="#ddd" stroke-width="1.0"/>
<rect x="100.0" y="508.7" width="370.9" height="17.4" fill="#1f77b4" opacity="0.80"/>
<text x="473.9" y="525.1" text-anchor="start" fill="#333" font-size="9">604ms</text>
<rect x="100.0" y="528.1" width="371.3" height="17.4" fill="#ff7f0e" opacity="0.80"/>
<text x="474.3" y="544.6" text-anchor="start" fill="#333" font-size="9">618ms</text>
<rect x="100.0" y="547.6" width="412.9" height="17.4" fill="#8c564b" opacity="0.80"/>
<text x="515.9" y="564.0" text-anchor="start" fill="#333" font-size="9">5944ms</text>
<text x="95.0" y="623.3" text-anchor="end" fill="#333" font-size="10">257-512-sample</text>
<line x1="100.0" y1="584.4" x2="560.0" y2="584.4" stroke="#ddd" stroke-width="1.0"/>
<rect x="100.0" y="586.4" width="456.2" height="17.4" fill="#1f77b4" opacity="0.80"/>
<text x="559.2" y="602.9" text-anchor="start" fill="#333" font-size="9">63140ms</text>
<text x="95.0" y="701.1" text-anchor="end" fill="#333" font-size="10">rankwidth</text>
<line x1="100.0" y1="662.2" x2="560.0" y2="662.2" stroke="#ddd" stroke-width="1.0"/>
<rect x="100.0" y="664.2" width="354.9" height="17.4" fill="#1f77b4" opacity="0.80"/>
<text x="457.9" y="680.7" text-anchor="start" fill="#333" font-size="9">252ms</text>
<rect x="100.0" y="683.7" width="369.0" height="17.4" fill="#ff7f0e" opacity="0.80"/>
<text x="472.0" y="700.1" text-anchor="start" fill="#333" font-size="9">543ms</text>
<rect x="100.0" y="703.1" width="324.0" height="17.4" fill="#8c564b" opacity="0.80"/>
<text x="427.0" y="719.6" text-anchor="start" fill="#333" font-size="9">47ms</text>
<rect x="570.0" y="41.0" width="12.0" height="9.0" fill="#1f77b4" opacity="1.00"/>
<text x="585.0" y="50.0" text-anchor="start" fill="#333" font-size="10">treewidth</text>
<rect x="570.0" y="57.0" width="12.0" height="9.0" fill="#ff7f0e" opacity="1.00"/>
<text x="585.0" y="66.0" text-anchor="start" fill="#333" font-size="10">branch:auto</text>
<rect x="570.0" y="73.0" width="12.0" height="9.0" fill="#8c564b" opacity="1.00"/>
<text x="585.0" y="82.0" text-anchor="start" fill="#333" font-size="10">rankwidth:best</text>
</svg>