<svg xmlns="http://www.w3.org/2000/svg" width="720" height="780" viewBox="0 0 720 780">
<style>text{font-family:sans-serif;font-size:11px;}</style>
<rect x="100.0" y="40.0" width="460.0" height="700.0" fill="#f8f8f8" opacity="1.00"/>
<text x="360.0" y="22.0" text-anchor="middle" fill="#222" font-size="13">Solver time by tier (total, log scale)</text>
<text x="95.0" y="78.9" text-anchor="end" fill="#333" font-size="10">0-32</text>
<line x1="100.0" y1="40.0" x2="560.0" y2="40.0" stroke="#ddd" stroke-width="1.0"/>
<rect x="100.0" y="42.0" width="337.2" height="13.6" fill="#1f77b4" opacity="0.80"/>
<text x="440.2" y="54.6" text-anchor="start" fill="#333" font-size="9">144ms</text>
<rect x="100.0" y="57.6" width="337.5" height="13.6" fill="#ff7f0e" opacity="0.80"/>
<text x="440.5" y="70.1" text-anchor="start" fill="#333" font-size="9">147ms</text>
<rect x="100.0" y="73.1" width="362.6" height="13.6" fill="#17becf" opacity="0.80"/>
<text x="465.6" y="85.7" text-anchor="start" fill="#333" font-size="9">593ms</text>
<rect x="100.0" y="88.7" width="358.0" height="13.6" fill="#8c564b" opacity="0.80"/>
<text x="461.0" y="101.2" text-anchor="start" fill="#333" font-size="9">459ms</text>
<text x="95.0" y="156.7" text-anchor="end" fill="#333" font-size="10">1-8</text>
<line x1="100.0" y1="117.8" x2="560.0" y2="117.8" stroke="#ddd" stroke-width="1.0"/>
<rect x="100.0" y="135.3" width="327.8" height="13.6" fill="#ff7f0e" opacity="0.80"/>
<text x="430.8" y="147.9" text-anchor="start" fill="#333" font-size="9">85ms</text>
<text x="95.0" y="234.4" text-anchor="end" fill="#333" font-size="10">9-16</text>
<line x1="100.0" y1="195.6" x2="560.0" y2="195.6" stroke="#ddd" stroke-width="1.0"/>
<rect x="100.0" y="213.1" width="321.5" height="13.6" fill="#ff7f0e" opacity="0.80"/>
<text x="424.5" y="225.7" text-anchor="start" fill="#333" font-size="9">60ms</text>
<text x="95.0" y="312.2" text-anchor="end" fill="#333" font-size="10">17-32</text>
<line x1="100.0" y1="273.3" x2="560.0" y2="273.3" stroke="#ddd" stroke-width="1.0"/>
<rect x="100.0" y="290.9" width="327.1" height="13.6" fill="#ff7f0e" opacity="0.80"/>
<text x="430.1" y="303.4" text-anchor="start" fill="#333" font-size="9">82ms</text>
<text x="95.0" y="390.0" text-anchor="end" fill="#333" font-size="10">33-64</text>
<line x1="100.0" y1="351.1" x2="560.0" y2="351.1" stroke="#ddd" stroke-width="1.0"/>
<rect x="100.0" y="353.1" width="335.4" height="13.6" fill="#1f77b4" opacity="0.80"/>
<text x="438.4" y="365.7" text-anchor="start" fill="#333" font-size="9">130ms</text>
<rect x="100.0" y="368.7" width="390.3" height="13.6" fill="#ff7f0e" opacity="0.80"/>
<text x="493.3" y="381.2" text-anchor="start" fill="#333" font-size="9">2778ms</text>
<rect x="100.0" y="384.2" width="362.4" height="13.6" fill="#17becf" opacity="0.80"/>
<text x="465.4" y="396.8" text-anchor="start" fill="#333" font-size="9">586ms</text>
<rect x="100.0" y="399.8" width="356.2" height="13.6" fill="#8c564b" opacity="0.80"/>
<text x="459.2" y="412.3" text-anchor="start" fill="#333" font-size="9">416ms</text>
<text x="95.0" y="467.8" text-anchor="end" fill="#333" font-size="10">65-128</text>
<line x1="100.0" y1="428.9" x2="560.0" y2="428.9" stroke="#ddd" stroke-width="1.0"/>
<rect x="100.0" y="430.9" width="360.3" height="13.6" fill="#1f77b4" opacity="0.80"/>
<text x="463.3" y="443.4" text-anchor="start" fill="#333" font-size="9">521ms</text>
<rect x="100.0" y="446.4" width="370.0" height="13.6" fill="#ff7f0e" opacity="0.80"/>
<text x="473.0" y="459.0" text-anchor="start" fill="#333" font-size="9">895ms</text>
<rect x="100.0" y="462.0" width="460.0" height="13.6" fill="#17becf" opacity="0.80"/>
<text x="563.0" y="474.6" text-anchor="start" fill="#333" font-size="9">134697ms</text>
<rect x="100.0" y="477.6" width="450.1" height="13.6" fill="#8c564b" opacity="0.80"/>
<text x="553.1" y="490.1" text-anchor="start" fill="#333" font-size="9">77660ms</text>
<text x="95.0" y="545.6" text-anchor="end" fill="#333" font-size="10">129-256</text>
<line x1="100.0" y1="506.7" x2="560.0" y2="506.7" stroke="#ddd" stroke-width="1.0"/>
<rect x="100.0" y="508.7" width="362.9" height="13.6" fill="#1f77b4" opacity="0.80"/>
<text x="465.9" y="521.2" text-anchor="start" fill="#333" font-size="9">604ms</text>
<rect x="100.0" y="524.2" width="363.4" height="13.6" fill="#ff7f0e" opacity="0.80"/>
<text x="466.4" y="536.8" text-anchor="start" fill="#333" font-size="9">618ms</text>
<rect x="100.0" y="539.8" width="436.3" height="13.6" fill="#17becf" opacity="0.80"/>
<text x="539.3" y="552.3" text-anchor="start" fill="#333" font-size="9">35992ms</text>
<rect x="100.0" y="555.3" width="404.0" height="13.6" fill="#8c564b" opacity="0.80"/>
<text x="507.0" y="567.9" text-anchor="start" fill="#333" font-size="9">5944ms</text>
<text x="95.0" y="623.3" text-anchor="end" fill="#333" font-size="10">257-512-sample</text>
<line x1="100.0" y1="584.4" x2="560.0" y2="584.4" stroke="#ddd" stroke-width="1.0"/>
<rect x="100.0" y="586.4" width="446.4" height="13.6" fill="#1f77b4" opacity="0.80"/>
<text x="549.4" y="599.0" text-anchor="start" fill="#333" font-size="9">63140ms</text>
<rect x="100.0" y="617.6" width="423.6" height="13.6" fill="#17becf" opacity="0.80"/>
<text x="526.6" y="630.1" text-anchor="start" fill="#333" font-size="9">17754ms</text>
<text x="95.0" y="701.1" text-anchor="end" fill="#333" font-size="10">rankwidth</text>
<line x1="100.0" y1="662.2" x2="560.0" y2="662.2" stroke="#ddd" stroke-width="1.0"/>
<rect x="100.0" y="664.2" width="347.3" height="13.6" fill="#1f77b4" opacity="0.80"/>
<text x="450.3" y="676.8" text-anchor="start" fill="#333" font-size="9">252ms</text>
<rect x="100.0" y="679.8" width="361.0" height="13.6" fill="#ff7f0e" opacity="0.80"/>
<text x="464.0" y="692.3" text-anchor="start" fill="#333" font-size="9">543ms</text>
<rect x="100.0" y="695.3" width="330.8" height="13.6" fill="#17becf" opacity="0.80"/>
<text x="433.8" y="707.9" text-anchor="start" fill="#333" font-size="9">101ms</text>
<rect x="100.0" y="710.9" width="317.0" height="13.6" fill="#8c564b" opacity="0.80"/>
<text x="420.0" y="723.4" text-anchor="start" fill="#333" font-size="9">47ms</text>
<rect x="570.0" y="41.0" width="12.0" height="9.0" fill="#1f77b4" opacity="1.00"/>
<text x="585.0" y="50.0" text-anchor="start" fill="#333" font-size="10">treewidth</text>
<rect x="570.0" y="57.0" width="12.0" height="9.0" fill="#ff7f0e" opacity="1.00"/>
<text x="585.0" y="66.0" text-anchor="start" fill="#333" font-size="10">branch:auto</text>
<rect x="570.0" y="73.0" width="12.0" height="9.0" fill="#17becf" opacity="1.00"/>
<text x="585.0" y="82.0" text-anchor="start" fill="#333" font-size="10">rankwidth:linear</text>
<rect x="570.0" y="89.0" width="12.0" height="9.0" fill="#8c564b" opacity="1.00"/>
<text x="585.0" y="98.0" text-anchor="start" fill="#333" font-size="10">rankwidth:best</text>
</svg>