<svg xmlns="http://www.w3.org/2000/svg" width="640" height="380" viewBox="0 0 640 380">
<style>text{font-family:sans-serif;font-size:11px;}</style>
<rect x="60.0" y="40.0" width="420.0" height="290.0" fill="#f8f8f8" opacity="1.00"/>
<text x="320.0" y="22.0" text-anchor="middle" fill="#222" font-size="12">Speedup relative to treewidth (ratio &gt; 1 = faster than treewidth)</text>
<text x="55.0" y="334.0" text-anchor="end" fill="#666" font-size="9">0.50×</text>
<line x1="60.0" y1="330.0" x2="480.0" y2="330.0" stroke="#eee" stroke-width="1.0"/>
<text x="55.0" y="249.2" text-anchor="end" fill="#666" font-size="9">0.75×</text>
<line x1="60.0" y1="245.2" x2="480.0" y2="245.2" stroke="#eee" stroke-width="1.0"/>
<text x="55.0" y="189.0" text-anchor="end" fill="#666" font-size="9">1.00×</text>
<line x1="60.0" y1="185.0" x2="480.0" y2="185.0" stroke="#eee" stroke-width="1.0"/>
<text x="55.0" y="142.3" text-anchor="end" fill="#666" font-size="9">1.25×</text>
<line x1="60.0" y1="138.3" x2="480.0" y2="138.3" stroke="#eee" stroke-width="1.0"/>
<text x="55.0" y="104.2" text-anchor="end" fill="#666" font-size="9">1.50×</text>
<line x1="60.0" y1="100.2" x2="480.0" y2="100.2" stroke="#eee" stroke-width="1.0"/>
<text x="55.0" y="44.0" text-anchor="end" fill="#666" font-size="9">2.00×</text>
<line x1="60.0" y1="40.0" x2="480.0" y2="40.0" stroke="#eee" stroke-width="1.0"/>
<line x1="60.0" y1="185.0" x2="480.0" y2="185.0" stroke="#999" stroke-width="1.0" stroke-dasharray="4,2"/>
<text x="102.0" y="345.0" text-anchor="middle" fill="#444" font-size="10">0-32</text>
<rect x="74.0" y="185.0" width="26.0" height="4.3" fill="#ff7f0e" opacity="0.40"/>
<rect x="102.0" y="185.0" width="26.0" height="145.0" fill="#8c564b" opacity="0.40"/>
<text x="186.0" y="345.0" text-anchor="middle" fill="#444" font-size="10">33-64</text>
<rect x="158.0" y="185.0" width="26.0" height="145.0" fill="#ff7f0e" opacity="0.40"/>
<rect x="186.0" y="185.0" width="26.0" height="145.0" fill="#8c564b" opacity="0.40"/>
<text x="270.0" y="345.0" text-anchor="middle" fill="#444" font-size="10">65-128</text>
<rect x="242.0" y="185.0" width="26.0" height="113.0" fill="#ff7f0e" opacity="0.40"/>
<rect x="270.0" y="185.0" width="26.0" height="145.0" fill="#8c564b" opacity="0.40"/>
<text x="354.0" y="345.0" text-anchor="middle" fill="#444" font-size="10">129-256</text>
<rect x="326.0" y="185.0" width="26.0" height="4.9" fill="#ff7f0e" opacity="0.40"/>
<rect x="354.0" y="185.0" width="26.0" height="145.0" fill="#8c564b" opacity="0.40"/>
<text x="438.0" y="345.0" text-anchor="middle" fill="#444" font-size="10">rankwidth</text>
<rect x="410.0" y="185.0" width="26.0" height="145.0" fill="#ff7f0e" opacity="0.40"/>
<rect x="438.0" y="40.0" width="26.0" height="145.0" fill="#8c564b" opacity="0.80"/>
<rect x="490.0" y="41.0" width="12.0" height="9.0" fill="#ff7f0e" opacity="1.00"/>
<text x="505.0" y="50.0" text-anchor="start" fill="#333" font-size="10">branch:auto</text>
<rect x="490.0" y="57.0" width="12.0" height="9.0" fill="#8c564b" opacity="1.00"/>
<text x="505.0" y="66.0" text-anchor="start" fill="#333" font-size="10">rankwidth:best</text>
</svg>