<svg xmlns="http://www.w3.org/2000/svg" width="720" height="420" viewBox="0 0 720 420">
<style>text{font-family:sans-serif;font-size:11px;}</style>
<rect x="60.0" y="40.0" width="500.0" height="330.0" fill="#f8f8f8" opacity="1.00"/>
<line x1="60.0" y1="370.0" x2="560.0" y2="370.0" stroke="#ddd" stroke-width="1.0"/>
<text x="55.0" y="374.0" text-anchor="end" fill="#666" font-size="10">0%</text>
<line x1="60.0" y1="287.5" x2="560.0" y2="287.5" stroke="#ddd" stroke-width="1.0"/>
<text x="55.0" y="291.5" text-anchor="end" fill="#666" font-size="10">25%</text>
<line x1="60.0" y1="205.0" x2="560.0" y2="205.0" stroke="#ddd" stroke-width="1.0"/>
<text x="55.0" y="209.0" text-anchor="end" fill="#666" font-size="10">50%</text>
<line x1="60.0" y1="122.5" x2="560.0" y2="122.5" stroke="#ddd" stroke-width="1.0"/>
<text x="55.0" y="126.5" text-anchor="end" fill="#666" font-size="10">75%</text>
<line x1="60.0" y1="40.0" x2="560.0" y2="40.0" stroke="#ddd" stroke-width="1.0"/>
<text x="55.0" y="44.0" text-anchor="end" fill="#666" font-size="10">100%</text>
<line x1="60.0" y1="40.0" x2="60.0" y2="370.0" stroke="#ddd" stroke-width="1.0"/>
<text x="60.0" y="385.0" text-anchor="middle" fill="#666" font-size="10">1ms</text>
<line x1="115.6" y1="40.0" x2="115.6" y2="370.0" stroke="#ddd" stroke-width="1.0"/>
<text x="115.6" y="385.0" text-anchor="middle" fill="#666" font-size="10">3ms</text>
<line x1="171.1" y1="40.0" x2="171.1" y2="370.0" stroke="#ddd" stroke-width="1.0"/>
<text x="171.1" y="385.0" text-anchor="middle" fill="#666" font-size="10">10ms</text>
<line x1="226.7" y1="40.0" x2="226.7" y2="370.0" stroke="#ddd" stroke-width="1.0"/>
<text x="226.7" y="385.0" text-anchor="middle" fill="#666" font-size="10">30ms</text>
<line x1="282.2" y1="40.0" x2="282.2" y2="370.0" stroke="#ddd" stroke-width="1.0"/>
<text x="282.2" y="385.0" text-anchor="middle" fill="#666" font-size="10">100ms</text>
<line x1="337.8" y1="40.0" x2="337.8" y2="370.0" stroke="#ddd" stroke-width="1.0"/>
<text x="337.8" y="385.0" text-anchor="middle" fill="#666" font-size="10">300ms</text>
<line x1="393.3" y1="40.0" x2="393.3" y2="370.0" stroke="#ddd" stroke-width="1.0"/>
<text x="393.3" y="385.0" text-anchor="middle" fill="#666" font-size="10">1s</text>
<line x1="448.9" y1="40.0" x2="448.9" y2="370.0" stroke="#ddd" stroke-width="1.0"/>
<text x="448.9" y="385.0" text-anchor="middle" fill="#666" font-size="10">3s</text>
<line x1="504.4" y1="40.0" x2="504.4" y2="370.0" stroke="#ddd" stroke-width="1.0"/>
<text x="504.4" y="385.0" text-anchor="middle" fill="#666" font-size="10">10s</text>
<line x1="560.0" y1="40.0" x2="560.0" y2="370.0" stroke="#ddd" stroke-width="1.0"/>
<text x="560.0" y="385.0" text-anchor="middle" fill="#666" font-size="10">30s</text>
<line x1="60.0" y1="40.0" x2="60.0" y2="370.0" stroke="#333" stroke-width="1.0"/>
<line x1="60.0" y1="370.0" x2="560.0" y2="370.0" stroke="#333" stroke-width="1.0"/>
<polyline points="60.0,297.2 115.6,280.7 171.1,243.9 226.7,217.2 282.2,217.2 337.8,215.8 393.3,208.6 448.9,208.6 504.4,208.6 560.0,208.6" stroke="#7f7f7f" stroke-width="2.0" fill="none"/>
<rect x="570.0" y="41.0" width="12.0" height="9.0" fill="#7f7f7f" opacity="1.00"/>
<text x="585.0" y="50.0" text-anchor="start" fill="#333" font-size="10">best native — 48.9%</text>
<polyline points="60.0,364.0 115.6,150.8 171.1,42.4 226.7,40.0 282.2,40.0 337.8,40.0 393.3,40.0 448.9,40.0 504.4,40.0 560.0,40.0" stroke="#ff7f0e" stroke-width="2.0" fill="none"/>
<rect x="570.0" y="59.0" width="12.0" height="9.0" fill="#ff7f0e" opacity="1.00"/>
<text x="585.0" y="68.0" text-anchor="start" fill="#333" font-size="10">branch:auto — 100.0%</text>
<polyline points="60.0,365.2 115.6,283.3 171.1,273.6 226.7,264.0 282.2,254.4 337.8,254.4 393.3,254.4 448.9,196.6 504.4,196.6 560.0,196.6" stroke="#8c564b" stroke-width="2.0" fill="none"/>
<rect x="570.0" y="77.0" width="12.0" height="9.0" fill="#8c564b" opacity="1.00"/>
<text x="585.0" y="86.0" text-anchor="start" fill="#333" font-size="10">rankwidth:best — 52.6%</text>
<polyline points="60.0,370.0 115.6,125.9 171.1,58.3 226.7,44.6 282.2,44.6 337.8,40.0 393.3,40.0 448.9,40.0 504.4,40.0 560.0,40.0" stroke="#1f77b4" stroke-width="2.0" fill="none"/>
<rect x="570.0" y="95.0" width="12.0" height="9.0" fill="#1f77b4" opacity="1.00"/>
<text x="585.0" y="104.0" text-anchor="start" fill="#333" font-size="10">treewidth — 100.0%</text>
<text x="360.0" y="20.0" text-anchor="middle" fill="#222" font-size="13">Solved fraction by time budget — FeynmanDD</text>
<text x="360.0" y="412.0" text-anchor="middle" fill="#555" font-size="10">Time budget (log scale)</text>
</svg>