<svg xmlns="http://www.w3.org/2000/svg" width="520" height="360" viewBox="0 0 520 360">
<style>text{font-family:sans-serif;font-size:11px;}</style>
<rect x="60.0" y="40.0" width="300.0" height="270.0" fill="#f8f8f8" opacity="1.00"/>
<text x="260.0" y="22.0" text-anchor="middle" fill="#222" font-size="13">WMC time breakdown by tier</text>
<text x="90.0" y="325.0" text-anchor="middle" fill="#444" font-size="10">0-32</text>
<rect x="64.0" y="222.1" width="52.0" height="0.2" fill="#17becf" opacity="0.85"/>
<rect x="64.0" y="222.3" width="52.0" height="87.7" fill="#e377c2" opacity="0.85"/>
<text x="150.0" y="325.0" text-anchor="middle" fill="#444" font-size="10">33-64</text>
<rect x="124.0" y="40.0" width="52.0" height="0.1" fill="#17becf" opacity="0.85"/>
<rect x="124.0" y="40.1" width="52.0" height="269.9" fill="#e377c2" opacity="0.85"/>
<text x="210.0" y="325.0" text-anchor="middle" fill="#444" font-size="10">65-128</text>
<rect x="184.0" y="287.9" width="52.0" height="0.1" fill="#17becf" opacity="0.85"/>
<rect x="184.0" y="288.0" width="52.0" height="22.0" fill="#e377c2" opacity="0.85"/>
<text x="270.0" y="325.0" text-anchor="middle" fill="#444" font-size="10">129-256</text>
<rect x="244.0" y="290.3" width="52.0" height="0.0" fill="#17becf" opacity="0.85"/>
<rect x="244.0" y="290.3" width="52.0" height="19.7" fill="#e377c2" opacity="0.85"/>
<text x="330.0" y="325.0" text-anchor="middle" fill="#444" font-size="10">257-512-sample</text>
<rect x="304.0" y="193.2" width="52.0" height="0.0" fill="#17becf" opacity="0.85"/>
<rect x="304.0" y="193.2" width="52.0" height="116.8" fill="#e377c2" opacity="0.85"/>
<rect x="370.0" y="41.0" width="12.0" height="9.0" fill="#e377c2" opacity="1.00"/>
<text x="385.0" y="50.0" text-anchor="start" fill="#333" font-size="10">Ganak</text>
<rect x="370.0" y="57.0" width="12.0" height="9.0" fill="#17becf" opacity="1.00"/>
<text x="385.0" y="66.0" text-anchor="start" fill="#333" font-size="10">Export</text>
</svg>