<svg xmlns="http://www.w3.org/2000/svg" width="720" height="540" viewBox="0 0 720 540">
<style>text{font-family:sans-serif;font-size:11px;}</style>
<rect x="100.0" y="40.0" width="460.0" height="460.0" fill="#f8f8f8" opacity="1.00"/>
<text x="360.0" y="22.0" text-anchor="middle" fill="#222" font-size="13">Solver time by tier (total, log scale)</text>
<text x="95.0" y="78.3" text-anchor="end" fill="#333" font-size="10">0-32</text>
<line x1="100.0" y1="40.0" x2="560.0" y2="40.0" stroke="#ddd" stroke-width="1.0"/>
<rect x="100.0" y="42.0" width="341.8" height="17.2" fill="#1f77b4" opacity="0.80"/>
<text x="444.8" y="58.2" text-anchor="start" fill="#333" font-size="9">107ms</text>
<rect x="100.0" y="61.2" width="342.3" height="17.2" fill="#ff7f0e" opacity="0.80"/>
<text x="445.3" y="77.3" text-anchor="start" fill="#333" font-size="9">110ms</text>
<rect x="100.0" y="80.3" width="368.6" height="17.2" fill="#8c564b" opacity="0.80"/>
<text x="471.6" y="96.5" text-anchor="start" fill="#333" font-size="9">457ms</text>
<text x="95.0" y="155.0" text-anchor="end" fill="#333" font-size="10">33-64</text>
<line x1="100.0" y1="116.7" x2="560.0" y2="116.7" stroke="#ddd" stroke-width="1.0"/>
<rect x="100.0" y="118.7" width="332.1" height="17.2" fill="#1f77b4" opacity="0.80"/>
<text x="435.1" y="134.8" text-anchor="start" fill="#333" font-size="9">64ms</text>
<rect x="100.0" y="137.8" width="334.1" height="17.2" fill="#ff7f0e" opacity="0.80"/>
<text x="437.1" y="154.0" text-anchor="start" fill="#333" font-size="9">71ms</text>
<rect x="100.0" y="157.0" width="333.1" height="17.2" fill="#8c564b" opacity="0.80"/>
<text x="436.1" y="173.2" text-anchor="start" fill="#333" font-size="9">67ms</text>
<text x="95.0" y="231.7" text-anchor="end" fill="#333" font-size="10">65-128</text>
<line x1="100.0" y1="193.3" x2="560.0" y2="193.3" stroke="#ddd" stroke-width="1.0"/>
<rect x="100.0" y="195.3" width="365.3" height="17.2" fill="#1f77b4" opacity="0.80"/>
<text x="468.3" y="211.5" text-anchor="start" fill="#333" font-size="9">382ms</text>
<rect x="100.0" y="214.5" width="368.0" height="17.2" fill="#ff7f0e" opacity="0.80"/>
<text x="471.0" y="230.7" text-anchor="start" fill="#333" font-size="9">444ms</text>
<text x="95.0" y="308.3" text-anchor="end" fill="#333" font-size="10">129-256</text>
<line x1="100.0" y1="270.0" x2="560.0" y2="270.0" stroke="#ddd" stroke-width="1.0"/>
<rect x="100.0" y="272.0" width="377.8" height="17.2" fill="#1f77b4" opacity="0.80"/>
<text x="480.8" y="288.2" text-anchor="start" fill="#333" font-size="9">754ms</text>
<rect x="100.0" y="291.2" width="375.9" height="17.2" fill="#ff7f0e" opacity="0.80"/>
<text x="478.9" y="307.3" text-anchor="start" fill="#333" font-size="9">677ms</text>
<text x="95.0" y="385.0" text-anchor="end" fill="#333" font-size="10">257-512-sample</text>
<line x1="100.0" y1="346.7" x2="560.0" y2="346.7" stroke="#ddd" stroke-width="1.0"/>
<rect x="100.0" y="348.7" width="460.0" height="17.2" fill="#1f77b4" opacity="0.80"/>
<text x="563.0" y="364.8" text-anchor="start" fill="#333" font-size="9">64209ms</text>
<text x="95.0" y="461.7" text-anchor="end" fill="#333" font-size="10">scaling</text>
<line x1="100.0" y1="423.3" x2="560.0" y2="423.3" stroke="#ddd" stroke-width="1.0"/>
<rect x="100.0" y="425.3" width="457.1" height="17.2" fill="#1f77b4" opacity="0.80"/>
<text x="560.1" y="441.5" text-anchor="start" fill="#333" font-size="9">54745ms</text>
<rect x="100.0" y="444.5" width="379.6" height="17.2" fill="#ff7f0e" opacity="0.80"/>
<text x="482.6" y="460.7" text-anchor="start" fill="#333" font-size="9">828ms</text>
<rect x="570.0" y="41.0" width="12.0" height="9.0" fill="#1f77b4" opacity="1.00"/>
<text x="585.0" y="50.0" text-anchor="start" fill="#333" font-size="10">treewidth</text>
<rect x="570.0" y="57.0" width="12.0" height="9.0" fill="#ff7f0e" opacity="1.00"/>
<text x="585.0" y="66.0" text-anchor="start" fill="#333" font-size="10">branch:auto</text>
<rect x="570.0" y="73.0" width="12.0" height="9.0" fill="#8c564b" opacity="1.00"/>
<text x="585.0" y="82.0" text-anchor="start" fill="#333" font-size="10">rankwidth:best</text>
</svg>