<svg xmlns="http://www.w3.org/2000/svg" width="720" height="460" viewBox="0 0 720 460">
<style>text{font-family:sans-serif;font-size:11px;}</style>
<rect x="100.0" y="40.0" width="460.0" height="380.0" fill="#f8f8f8" opacity="1.00"/>
<text x="360.0" y="22.0" text-anchor="middle" fill="#222" font-size="13">Solver time by tier (total, log scale)</text>
<text x="95.0" y="78.0" text-anchor="end" fill="#333" font-size="10">0-32</text>
<line x1="100.0" y1="40.0" x2="560.0" y2="40.0" stroke="#ddd" stroke-width="1.0"/>
<rect x="100.0" y="42.0" width="341.8" height="17.0" fill="#1f77b4" opacity="0.80"/>
<text x="444.8" y="58.0" text-anchor="start" fill="#333" font-size="9">107ms</text>
<rect x="100.0" y="61.0" width="342.3" height="17.0" fill="#ff7f0e" opacity="0.80"/>
<text x="445.3" y="77.0" text-anchor="start" fill="#333" font-size="9">110ms</text>
<rect x="100.0" y="80.0" width="368.6" height="17.0" fill="#8c564b" opacity="0.80"/>
<text x="471.6" y="96.0" text-anchor="start" fill="#333" font-size="9">457ms</text>
<text x="95.0" y="154.0" text-anchor="end" fill="#333" font-size="10">33-64</text>
<line x1="100.0" y1="116.0" x2="560.0" y2="116.0" stroke="#ddd" stroke-width="1.0"/>
<rect x="100.0" y="118.0" width="332.1" height="17.0" fill="#1f77b4" opacity="0.80"/>
<text x="435.1" y="134.0" text-anchor="start" fill="#333" font-size="9">64ms</text>
<rect x="100.0" y="137.0" width="334.1" height="17.0" fill="#ff7f0e" opacity="0.80"/>
<text x="437.1" y="153.0" text-anchor="start" fill="#333" font-size="9">71ms</text>
<rect x="100.0" y="156.0" width="333.1" height="17.0" fill="#8c564b" opacity="0.80"/>
<text x="436.1" y="172.0" text-anchor="start" fill="#333" font-size="9">67ms</text>
<text x="95.0" y="230.0" text-anchor="end" fill="#333" font-size="10">65-128</text>
<line x1="100.0" y1="192.0" x2="560.0" y2="192.0" stroke="#ddd" stroke-width="1.0"/>
<rect x="100.0" y="194.0" width="365.3" height="17.0" fill="#1f77b4" opacity="0.80"/>
<text x="468.3" y="210.0" text-anchor="start" fill="#333" font-size="9">382ms</text>
<rect x="100.0" y="213.0" width="368.0" height="17.0" fill="#ff7f0e" opacity="0.80"/>
<text x="471.0" y="229.0" text-anchor="start" fill="#333" font-size="9">444ms</text>
<text x="95.0" y="306.0" text-anchor="end" fill="#333" font-size="10">129-256</text>
<line x1="100.0" y1="268.0" x2="560.0" y2="268.0" stroke="#ddd" stroke-width="1.0"/>
<rect x="100.0" y="270.0" width="377.8" height="17.0" fill="#1f77b4" opacity="0.80"/>
<text x="480.8" y="286.0" text-anchor="start" fill="#333" font-size="9">754ms</text>
<rect x="100.0" y="289.0" width="375.9" height="17.0" fill="#ff7f0e" opacity="0.80"/>
<text x="478.9" y="305.0" text-anchor="start" fill="#333" font-size="9">677ms</text>
<text x="95.0" y="382.0" text-anchor="end" fill="#333" font-size="10">257-512-sample</text>
<line x1="100.0" y1="344.0" x2="560.0" y2="344.0" stroke="#ddd" stroke-width="1.0"/>
<rect x="100.0" y="346.0" width="460.0" height="17.0" fill="#1f77b4" opacity="0.80"/>
<text x="563.0" y="362.0" text-anchor="start" fill="#333" font-size="9">64209ms</text>
<rect x="570.0" y="41.0" width="12.0" height="9.0" fill="#1f77b4" opacity="1.00"/>
<text x="585.0" y="50.0" text-anchor="start" fill="#333" font-size="10">treewidth</text>
<rect x="570.0" y="57.0" width="12.0" height="9.0" fill="#ff7f0e" opacity="1.00"/>
<text x="585.0" y="66.0" text-anchor="start" fill="#333" font-size="10">branch:auto</text>
<rect x="570.0" y="73.0" width="12.0" height="9.0" fill="#8c564b" opacity="1.00"/>
<text x="585.0" y="82.0" text-anchor="start" fill="#333" font-size="10">rankwidth:best</text>
</svg>