<svg xmlns="http://www.w3.org/2000/svg" width="640" height="400" viewBox="0 0 640 400">
<style>text{font-family:sans-serif;font-size:11px;}</style>
<rect x="60.0" y="40.0" width="430.0" height="310.0" fill="#f8f8f8" opacity="1.00"/>
<text x="320.0" y="22.0" text-anchor="middle" fill="#222" font-size="12">WMC vs solver scaling (synthetic phase-polynomial family)</text>
<line x1="60.0" y1="350.0" x2="490.0" y2="350.0" stroke="#eee" stroke-width="1.0"/>
<text x="55.0" y="354.0" text-anchor="end" fill="#666" font-size="9">1ms</text>
<line x1="60.0" y1="280.8" x2="490.0" y2="280.8" stroke="#eee" stroke-width="1.0"/>
<text x="55.0" y="284.8" text-anchor="end" fill="#666" font-size="9">10ms</text>
<line x1="60.0" y1="211.5" x2="490.0" y2="211.5" stroke="#eee" stroke-width="1.0"/>
<text x="55.0" y="215.5" text-anchor="end" fill="#666" font-size="9">100ms</text>
<line x1="60.0" y1="142.3" x2="490.0" y2="142.3" stroke="#eee" stroke-width="1.0"/>
<text x="55.0" y="146.3" text-anchor="end" fill="#666" font-size="9">1s</text>
<line x1="60.0" y1="73.0" x2="490.0" y2="73.0" stroke="#eee" stroke-width="1.0"/>
<text x="55.0" y="77.0" text-anchor="end" fill="#666" font-size="9">10s</text>
<line x1="60.0" y1="40.0" x2="490.0" y2="40.0" stroke="#eee" stroke-width="1.0" stroke-dasharray="4,2"/>
<text x="55.0" y="44.0" text-anchor="end" fill="#666" font-size="9">timeout</text>
<text x="60.0" y="365.0" text-anchor="middle" fill="#444" font-size="9">8</text>
<text x="146.0" y="365.0" text-anchor="middle" fill="#444" font-size="9">12</text>
<text x="232.0" y="365.0" text-anchor="middle" fill="#444" font-size="9">16</text>
<text x="318.0" y="365.0" text-anchor="middle" fill="#444" font-size="9">20</text>
<text x="404.0" y="365.0" text-anchor="middle" fill="#444" font-size="9">24</text>
<text x="490.0" y="365.0" text-anchor="middle" fill="#444" font-size="9">28</text>
<text x="275.0" y="384.0" text-anchor="middle" fill="#444" font-size="10">qubits</text>
<polyline points="60.0,267.0 146.0,204.1 232.0,152.6 318.0,56.4 404.0,52.4" stroke="#1f77b4" stroke-width="2.0" fill="none"/>
<rect x="58.0" y="265.0" width="4.0" height="4.0" fill="#1f77b4" opacity="1.00"/>
<rect x="144.0" y="202.1" width="4.0" height="4.0" fill="#1f77b4" opacity="1.00"/>
<rect x="230.0" y="150.6" width="4.0" height="4.0" fill="#1f77b4" opacity="1.00"/>
<rect x="316.0" y="54.4" width="4.0" height="4.0" fill="#1f77b4" opacity="1.00"/>
<rect x="402.0" y="50.4" width="4.0" height="4.0" fill="#1f77b4" opacity="1.00"/>
<text x="490.0" y="36.0" text-anchor="middle" fill="#1f77b4" font-size="13">×</text>
<polyline points="60.0,262.2 146.0,203.9 232.0,151.3" stroke="#2ca02c" stroke-width="2.0" fill="none"/>
<rect x="58.0" y="260.2" width="4.0" height="4.0" fill="#2ca02c" opacity="1.00"/>
<rect x="144.0" y="201.9" width="4.0" height="4.0" fill="#2ca02c" opacity="1.00"/>
<rect x="230.0" y="149.3" width="4.0" height="4.0" fill="#2ca02c" opacity="1.00"/>
<text x="318.0" y="36.0" text-anchor="middle" fill="#2ca02c" font-size="13">×</text>
<polyline points="60.0,167.3 146.0,145.9 232.0,124.2 318.0,76.5" stroke="#d62728" stroke-width="2.0" fill="none"/>
<rect x="58.0" y="165.3" width="4.0" height="4.0" fill="#d62728" opacity="1.00"/>
<rect x="144.0" y="143.9" width="4.0" height="4.0" fill="#d62728" opacity="1.00"/>
<rect x="230.0" y="122.2" width="4.0" height="4.0" fill="#d62728" opacity="1.00"/>
<rect x="316.0" y="74.5" width="4.0" height="4.0" fill="#d62728" opacity="1.00"/>
<text x="404.0" y="36.0" text-anchor="middle" fill="#d62728" font-size="13">×</text>
<rect x="500.0" y="41.0" width="12.0" height="9.0" fill="#1f77b4" opacity="1.00"/>
<text x="515.0" y="50.0" text-anchor="start" fill="#333" font-size="10">treewidth</text>
<rect x="500.0" y="57.0" width="12.0" height="9.0" fill="#2ca02c" opacity="1.00"/>
<text x="515.0" y="66.0" text-anchor="start" fill="#333" font-size="10">branch</text>
<rect x="500.0" y="73.0" width="12.0" height="9.0" fill="#d62728" opacity="1.00"/>
<text x="515.0" y="82.0" text-anchor="start" fill="#333" font-size="10">ganak (WMC)</text>
<text x="500.0" y="102.0" text-anchor="start" fill="#666" font-size="9">× = first size</text>
<text x="500.0" y="114.0" text-anchor="start" fill="#666" font-size="9">that times out</text>
</svg>